<svg width="34" height="34" viewBox="0 0 34 34" fill="none" xmlns="http://www.w3.org/2000/svg">
<path d="M13.8295 22.8528C13.9478 23.0179 14.1037 23.1524 14.2843 23.2452C14.4649 23.338 14.665 23.3864 14.8681 23.3864C15.0712 23.3864 15.2713 23.338 15.4519 23.2452C15.6326 23.1524 15.7885 23.0179 15.9067 22.8528L24.3683 11.1207C24.521 10.9077 24.3683 10.6104 24.1072 10.6104H22.2228C21.813 10.6104 21.4232 10.8073 21.1822 11.1448L14.8701 19.9037L12.0094 15.9341C11.7683 15.6006 11.3826 15.3997 10.9688 15.3997H9.0844C8.82324 15.3997 8.67056 15.697 8.82324 15.91L13.8295 22.8528Z" fill="#1677FF" fill-opacity="0.85"/>
<path d="M31.7863 0.924927H2.2149C1.50374 0.924927 0.929184 1.49948 0.929184 2.21064V31.7821C0.929184 32.4932 1.50374 33.0678 2.2149 33.0678H31.7863C32.4975 33.0678 33.072 32.4932 33.072 31.7821V2.21064C33.072 1.49948 32.4975 0.924927 31.7863 0.924927ZM30.1792 30.1749H3.82204V3.81778H30.1792V30.1749Z" fill="#1677FF" fill-opacity="0.85"/>
</svg>
